<svg id="Layer_1" data-name="Layer 1" xmlns="http://www.w3.org/2000/svg" width="144.21" height="59.04" viewBox="0 0 144.21 59.04"><defs><style>.cls-1{font-size:27.58px;font-family:MyriadPro-Regular, Myriad Pro;}.cls-1,.cls-5{fill:#231f20;}.cls-2{letter-spacing:0em;}.cls-3{letter-spacing:-0.01em;}.cls-4{letter-spacing:-0.01em;}.cls-6{fill:#f1f2f2;}.cls-7{fill:#fff;}</style></defs><text class="cls-1" transform="translate(0 23.08) scale(1.04 1)"><tspan class="cls-2">R</tspan><tspan x="14.95" y="0">e</tspan><tspan class="cls-3" x="28.76" y="0">c</tspan><tspan x="40.95" y="0">o</tspan><tspan class="cls-4" x="56.09" y="0">r</tspan><tspan x="64.84" y="0">dT</tspan></text><ellipse class="cls-5" cx="113.05" cy="13.79" rx="14.28" ry="13.69"/><ellipse class="cls-6" cx="113.05" cy="13.79" rx="7.22" ry="6.92"/><ellipse class="cls-5" cx="113.05" cy="13.79" rx="4.63" ry="4.43"/><ellipse class="cls-7" cx="113.05" cy="13.79" rx="0.95" ry="0.91"/><text class="cls-1" transform="translate(127.84 23.39) scale(1.04 1)">p</text><text class="cls-1" transform="translate(31.98 51.87) scale(1.04 1)"><tspan class="cls-2">R</tspan><tspan x="14.95" y="0">ec</tspan></text><ellipse class="cls-5" cx="89.51" cy="44.24" rx="14.28" ry="13.69"/><ellipse class="cls-6" cx="89.51" cy="44.24" rx="7.22" ry="6.92"/><ellipse class="cls-5" cx="89.51" cy="44.24" rx="4.63" ry="4.43"/><ellipse class="cls-7" cx="89.51" cy="44.24" rx="0.95" ry="0.91"/><text class="cls-1" transform="translate(105.24 52.14) scale(1.04 1)"><tspan class="cls-4">r</tspan><tspan x="8.74" y="0">ds</tspan></text></svg>